:SAMPLES-PER-SECOND 30
:FULLY-SPECIFIED
:DEGREES
406
root  -20.3383 36.3897 20.1669 1.35318 -70.7265 -8.6333
RightUpLeg  -33.8292 -23.8987 8.92947
RightLeg  33.724 -2.16073 -1.80553
RightFoot  4.25351 1.6862 -12.0456
RightToes  0.00048216 0.542163 -0.142577
Spine  24.232 -5.6534 15.385
Spine1  11.8245 -2.27415 -0.0541479
HEad  2.38527 -9.4349 -1.18209
LeftShoulder1  8.56236 -13.248 -44.5229
LeftArm  -19.3739 21.3852 -19.5999
LeftForeArm  23.1338 -73.9255 -42.3787
LeftHand  -0.25398 0.0180481 5.50724
RightShoulder  4.95669 9.74059 31.4773
RightArm  -1.05237 -2.21987 30.4053
RightForeArm  2.66942 76.5948 66.9261
RightHand  1.3583 -13.3339 -20.2641
LeftUpLeg  -2.65272 11.478 10.4081
LeftLeg  69.7663 3.1429 9.97938
LeftFoot  14.3115 0.344622 -1.68729
LeftToes  1.06246e-005 4.65855e-005 -8.18505e-006
407
root  -21.4443 36.6587 20.3602 4.11636 -69.6457 -10.1586
RightUpLeg  -33.8917 -25.8171 9.81078
RightLeg  34.7825 -1.35079 -1.28821
RightFoot  2.20924 1.38107 -11.4585
RightToes  0.00048216 0.542163 -0.142577
Spine  26.8224 -6.06961 15.9017
Spine1  11.7314 -2.83503 1.38837
HEad  0.0714528 -10.3825 0.501525
LeftShoulder1  8.65384 -13.7289 -43.7023
LeftArm  -19.0744 16.73 -20.4115
LeftForeArm  18.5101 -72.3615 -37.7035
LeftHand  -0.25398 0.0180481 5.50724
RightShoulder  4.83082 9.61926 30.8593
RightArm  -2.11629 1.01369 29.9351
RightForeArm  -4.36618 75.9118 61.0987
RightHand  1.34166 -13.2377 -20.2679
LeftUpLeg  -13.9188 9.87635 8.53048
LeftLeg  76.987 1.2012 7.48012
LeftFoot  13.4796 -0.482671 1.83412
LeftToes  1.06246e-005 4.65855e-005 -8.18505e-006
408
root  -22.6458 37.1884 20.613 4.57713 -70.382 -9.06651
RightUpLeg  -33.0145 -26.4773 9.64139
RightLeg  34.2697 -0.0142404 -0.285591
RightFoot  1.06376 1.22211 -11.1253
RightToes  0.00048216 0.542163 -0.142577
Spine  28.8719 -5.54309 15.3381
Spine1  11.576 -2.54015 1.79887
HEad  -1.6062 -11.1607 1.81131
LeftShoulder1  8.70299 -14.1089 -42.9603
LeftArm  -18.7689 11.7804 -20.948
LeftForeArm  13.5493 -70.2341 -32.8301
LeftHand  -0.25398 0.0180481 5.50724
RightShoulder  4.71793 9.48885 30.3553
RightArm  -2.8811 3.82005 29.4474
RightForeArm  -11.219 75.0115 55.31
RightHand  1.21162 -12.4493 -20.3867
LeftUpLeg  -23.1222 10.1724 5.98881
LeftLeg  78.232 0.355617 3.76399
LeftFoot  9.15221 -0.227137 0.895752
LeftToes  1.06246e-005 4.65855e-005 -8.18505e-006
409
root  -23.86 37.6822 20.8914 4.66966 -72.486 -7.75652
RightUpLeg  -31.5678 -25.4502 9.00626
RightLeg  33.5397 0.807845 0.307658
RightFoot  -0.418956 0.982946 -10.2662
RightToes  0.00048216 0.542163 -0.142577
Spine  30.8166 -4.56883 14.2619
Spine1  11.299 -1.75123 1.77791
HEad  -2.68216 -11.5056 2.48159
LeftShoulder1  8.70066 -14.3664 -42.2885
LeftArm  -18.8632 7.38118 -21.3877
LeftForeArm  9.5311 -67.9273 -28.7574
LeftHand  -0.25398 0.0180481 5.50724
RightShoulder  4.72792 9.67756 29.9036
RightArm  -3.37066 6.225 29.081
RightForeArm  -17.729 73.8071 49.4229
RightHand  0.96625 -11.0266 -20.4686
LeftUpLeg  -30.1551 11.9038 3.61575
LeftLeg  74.6268 0.421901 2.82249
LeftFoot  6.20889 0.163972 -1.27248
LeftToes  1.06246e-005 4.65855e-005 -8.18505e-006
410
root  -25.0492 38.0974 21.1838 4.85397 -74.7506 -6.94907
RightUpLeg  -29.8073 -23.9484 8.32005
RightLeg  32.8239 1.17832 0.554751
RightFoot  -1.70026 0.793252 -9.52101
RightToes  0.00048216 0.542163 -0.142577
Spine  32.9105 -3.81256 13.0497
Spine1  10.8674 -1.16867 1.61837
HEad  -3.58723 -11.207 2.75518
LeftShoulder1  8.60455 -14.5442 -41.3432
LeftArm  -19.3512 4.02863 -21.8685
LeftForeArm  6.83891 -65.8781 -25.8561
LeftHand  -0.25398 0.0180481 5.50724
RightShoulder  4.77624 9.95067 29.5261
RightArm  -3.36511 8.78049 29.1076
RightForeArm  -24.3676 72.1555 43.3749
RightHand  0.696297 -9.44777 -20.6838
LeftUpLeg  -34.7389 13.8133 1.4088
LeftLeg  66.8658 1.63326 4.82742
LeftFoot  3.76273 0.0689186 -0.658413
LeftToes  1.06246e-005 4.65855e-005 -8.18505e-006
411
root  -26.1764 38.4487 21.5141 5.32161 -76.4639 -6.54385
RightUpLeg  -28.4234 -22.9577 7.81474
RightLeg  32.4107 1.39576 0.694557
RightFoot  -2.52891 0.721212 -9.55419
RightToes  0.00048216 0.542163 -0.142577
Spine  34.8217 -3.5431 11.9799
Spine1  10.5037 -1.0438 1.36642
HEad  -4.55296 -10.2511 2.78864
LeftShoulder1  8.50065 -14.6726 -40.4888
LeftArm  -19.8101 1.44967 -21.8697
LeftForeArm  4.82293 -64.1461 -23.8106
LeftHand  -0.25398 0.0180481 5.50724
RightShoulder  4.76181 10.0272 29.212
RightArm  -2.78125 11.624 29.5508
RightForeArm  -31.1621 70.1681 37.961
RightHand  0.483084 -8.13313 -21.4496
LeftUpLeg  -36.9377 15.2737 -0.537094
LeftLeg  54.5413 3.84474 6.27345
LeftFoot  1.28858 -0.0453976 0.311467
LeftToes  1.06246e-005 4.65855e-005 -8.18505e-006
412
root  -27.2547 38.7351 21.8865 5.08026 -77.9572 -5.2298
RightUpLeg  -27.5884 -22.1958 7.12319
RightLeg  32.4245 1.45634 0.739976
RightFoot  -3.46755 0.631805 -9.47679
RightToes  0.00048216 0.542163 -0.142577
Spine  36.3061 -3.43292 10.6998
Spine1  10.6079 -0.998544 0.871386
HEad  -5.52033 -8.95843 2.65122
LeftShoulder1  8.50257 -14.8386 -40.0982
LeftArm  -20.0632 -0.955773 -21.1775
LeftForeArm  2.90413 -62.4709 -22.1142
LeftHand  -0.25398 0.0180481 5.50724
RightShoulder  4.70905 10.049 28.7566
RightArm  -2.00208 14.352 30.1792
RightForeArm  -37.555 68.1918 33.8445
RightHand  0.321684 -7.13458 -22.7353
LeftUpLeg  -37.1743 17.5844 -3.0117
LeftLeg  37.5669 5.04416 4.9697
LeftFoot  1.31296 0.0430118 -0.439114
LeftToes  1.06246e-005 4.65855e-005 -8.18505e-006
413
root  -28.342 38.8286 22.3247 6.20982 -80.0558 -5.36203
RightUpLeg  -27.1945 -20.8 6.51303
RightLeg  33.5279 1.32704 0.687634
RightFoot  -5.1714 0.447082 -8.91663
RightToes  0.00048216 0.542163 -0.142577
Spine  37.4807 -3.22037 9.77121
Spine1  11.4219 -0.522748 -0.0504947
HEad  -6.29701 -7.72861 2.52449
LeftShoulder1  8.51299 -15.164 -39.3854
LeftArm  -20.4518 -3.37293 -20.9404
LeftForeArm  1.10107 -60.5257 -20.3739
LeftHand  -0.25398 0.0180481 5.50724
RightShoulder  4.68721 10.2457 28.0831
RightArm  -1.41056 16.8298 30.7596
RightForeArm  -43.2828 66.2507 30.5971
RightHand  0.143721 -6.16704 -24.0424
LeftUpLeg  -35.1281 18.9116 -3.75094
LeftLeg  18.7933 7.1584 1.32908
LeftFoot  2.82538 0.195991 -1.72072
LeftToes  1.06246e-005 4.65855e-005 -8.18505e-006
414
root  -29.491 38.6722 22.8799 16.2177 -83.0072 -14.8506
RightUpLeg  -26.9468 -18.5899 6.6583
RightLeg  35.9794 1.23059 0.68935
RightFoot  -7.60975 0.239188 -8.94972
RightToes  0.00048216 0.542163 -0.142577
Spine  38.645 -3.01926 10.0486
Spine1  12.686 0.482395 -1.45121
HEad  -6.73438 -6.56271 2.47106
LeftShoulder1  8.38197 -15.5525 -37.8324
LeftArm  -21.158 -5.71332 -21.8292
LeftForeArm  -0.53889 -58.1452 -18.5049
LeftHand  -0.25398 0.0180481 5.50724
RightShoulder  4.69279 10.5492 27.3628
RightArm  -0.803111 19.4543 31.3533
RightForeArm  -48.7629 63.8981 27.367
RightHand  -0.070906 -5.13379 -25.0427
LeftUpLeg  -30.4549 11.2391 3.80306
LeftLeg  4.30988 18.9242 -4.21035
LeftFoot  3.07031 0.372454 -3.09603
LeftToes  1.06246e-005 4.65855e-005 -8.18505e-006
415
root  -30.602 38.4478 23.5173 44.1743 -85.4529 -42.4003
RightUpLeg  -26.9865 -16.4304 7.13545
RightLeg  38.8992 1.39467 0.92623
RightFoot  -9.46319 0.0884427 -8.99678
RightToes  0.00048216 0.542163 -0.142577
Spine  40.1543 -3.00826 10.4126
Spine1  13.889 1.58595 -3.06091
HEad  -7.01434 -5.06025 2.27643
LeftShoulder1  8.24642 -15.7051 -36.8119
LeftArm  -21.856 -8.25215 -22.1769
LeftForeArm  -2.40469 -55.3124 -16.6286
LeftHand  -0.25398 0.0180481 5.50724
RightShoulder  4.69217 10.838 26.6616
RightArm  0.327416 22.6234 32.1381
RightForeArm  -54.2459 60.7642 23.9088
RightHand  -0.242773 -4.35518 -25.5583
LeftUpLeg  -29.1905 8.01652 7.57847
LeftLeg  -0.294433 23.1639 -6.15594
LeftFoot  3.52243 0.487433 -3.86346
LeftToes  1.06246e-005 4.65855e-005 -8.18505e-006
416
root  -31.6089 38.2139 24.1993 87.7751 -86.0206 -85.1886
RightUpLeg  -28.7953 -15.4923 7.2128
RightLeg  43.3957 2.04819 1.79142
RightFoot  -9.16918 0.0585961 -6.77383
RightToes  0.00048216 0.542163 -0.142577
Spine  41.8363 -2.86513 9.7708
Spine1  14.3923 2.1815 -3.91524
HEad  -7.67796 -3.08109 1.81658
LeftShoulder1  8.31293 -15.5982 -37.3822
LeftArm  -22.3343 -11.498 -20.6124
LeftForeArm  -4.71182 -51.8249 -14.7164
LeftHand  -0.25398 0.0180481 5.50724
RightShoulder  4.69443 11.1829 25.8783
RightArm  2.04644 26.4262 32.8624
RightForeArm  -59.0694 56.9449 20.5959
RightHand  -0.312933 -4.01875 -25.186
LeftUpLeg  -30.6823 9.69396 7.67563
LeftLeg  3.03989 21.2026 -4.97488
LeftFoot  7.76389 0.202884 -1.66116
LeftToes  1.06246e-005 4.65855e-005 -8.18505e-006
